<svg width="517" height="415" viewBox="0 0 517 415" fill="none" xmlns="http://www.w3.org/2000/svg">
<path d="M478.141 155.625H382.238C392.488 179.609 387.989 208.473 368.508 228.023L258.455 338.468V376.094C258.455 397.581 275.811 415 297.223 415H478.141C499.552 415 516.909 397.581 516.909 376.094V194.531C516.909 173.044 499.552 155.625 478.141 155.625ZM387.682 304.766C376.98 304.766 368.298 296.052 368.298 285.312C368.298 274.565 376.98 265.859 387.682 265.859C398.384 265.859 407.066 274.565 407.066 285.312C407.066 296.052 398.384 304.766 387.682 304.766ZM350.23 153.437L208.944 11.6476C193.469 -3.88252 168.375 -3.88252 152.9 11.6476L11.6062 153.437C-3.86874 168.967 -3.86874 194.15 11.6062 209.68L152.892 351.477C168.367 367.008 193.461 367.008 208.936 351.477L350.23 209.688C365.705 194.15 365.705 168.967 350.23 153.437ZM77.5364 201.016C66.8348 201.016 58.1523 192.302 58.1523 181.562C58.1523 170.815 66.8348 162.109 77.5364 162.109C88.238 162.109 96.9205 170.815 96.9205 181.562C96.9205 192.302 88.238 201.016 77.5364 201.016ZM180.918 304.766C170.217 304.766 161.534 296.052 161.534 285.312C161.534 274.565 170.217 265.859 180.918 265.859C191.62 265.859 200.302 274.565 200.302 285.312C200.302 296.052 191.62 304.766 180.918 304.766ZM180.918 201.016C170.217 201.016 161.534 192.302 161.534 181.562C161.534 170.815 170.217 162.109 180.918 162.109C191.62 162.109 200.302 170.815 200.302 181.562C200.302 192.302 191.62 201.016 180.918 201.016ZM180.918 97.2656C170.217 97.2656 161.534 88.5522 161.534 77.8125C161.534 67.0647 170.217 58.3594 180.918 58.3594C191.62 58.3594 200.302 67.0647 200.302 77.8125C200.302 88.5522 191.62 97.2656 180.918 97.2656ZM284.3 201.016C273.598 201.016 264.916 192.302 264.916 181.562C264.916 170.815 273.598 162.109 284.3 162.109C295.002 162.109 303.684 170.815 303.684 181.562C303.684 192.302 295.002 201.016 284.3 201.016Z" fill="#C51A29"/>
<path d="M478.141 155.625H382.238C392.488 179.609 387.989 208.473 368.508 228.023L258.455 338.468V376.094C258.455 397.581 275.811 415 297.223 415H478.141C499.552 415 516.909 397.581 516.909 376.094V194.531C516.909 173.044 499.552 155.625 478.141 155.625ZM387.682 304.766C376.98 304.766 368.298 296.052 368.298 285.312C368.298 274.565 376.98 265.859 387.682 265.859C398.384 265.859 407.066 274.565 407.066 285.312C407.066 296.052 398.384 304.766 387.682 304.766ZM350.23 153.437L208.944 11.6476C193.469 -3.88252 168.375 -3.88252 152.9 11.6476L11.6062 153.437C-3.86874 168.967 -3.86874 194.15 11.6062 209.68L152.892 351.477C168.367 367.008 193.461 367.008 208.936 351.477L350.23 209.688C365.705 194.15 365.705 168.967 350.23 153.437ZM77.5364 201.016C66.8348 201.016 58.1523 192.302 58.1523 181.562C58.1523 170.815 66.8348 162.109 77.5364 162.109C88.238 162.109 96.9205 170.815 96.9205 181.562C96.9205 192.302 88.238 201.016 77.5364 201.016ZM180.918 304.766C170.217 304.766 161.534 296.052 161.534 285.312C161.534 274.565 170.217 265.859 180.918 265.859C191.62 265.859 200.302 274.565 200.302 285.312C200.302 296.052 191.62 304.766 180.918 304.766ZM180.918 201.016C170.217 201.016 161.534 192.302 161.534 181.562C161.534 170.815 170.217 162.109 180.918 162.109C191.62 162.109 200.302 170.815 200.302 181.562C200.302 192.302 191.62 201.016 180.918 201.016ZM180.918 97.2656C170.217 97.2656 161.534 88.5522 161.534 77.8125C161.534 67.0647 170.217 58.3594 180.918 58.3594C191.62 58.3594 200.302 67.0647 200.302 77.8125C200.302 88.5522 191.62 97.2656 180.918 97.2656ZM284.3 201.016C273.598 201.016 264.916 192.302 264.916 181.562C264.916 170.815 273.598 162.109 284.3 162.109C295.002 162.109 303.684 170.815 303.684 181.562C303.684 192.302 295.002 201.016 284.3 201.016Z" fill="#C51A29"/>
<path d="M183.111 309.805C164.798 309.805 147.76 306.675 131.997 300.416C116.465 293.924 102.789 284.883 90.9663 273.291C79.3757 261.7 70.3351 248.253 63.8444 232.952C57.3537 217.42 54.1084 200.728 54.1084 182.876C54.1084 165.025 57.3537 148.449 63.8444 133.148C70.3351 117.616 79.3757 104.169 90.9663 92.8094C102.557 81.4496 116.118 72.6399 131.649 66.3804C147.412 59.8891 164.45 56.6435 182.763 56.6435C202.235 56.6435 219.505 59.7732 234.573 66.0327C249.872 72.2922 263.202 80.87 274.56 91.7661L238.05 128.628C231.559 121.673 223.678 116.225 214.405 112.283C205.365 108.342 194.817 106.372 182.763 106.372C172.1 106.372 162.248 108.226 153.207 111.936C144.399 115.413 136.749 120.513 130.258 127.237C123.999 133.96 119.015 142.074 115.306 151.579C111.829 161.084 110.091 171.517 110.091 182.876C110.091 194.468 111.829 205.017 115.306 214.522C119.015 224.027 123.999 232.141 130.258 238.864C136.749 245.587 144.399 250.804 153.207 254.513C162.248 258.222 172.1 260.077 182.763 260.077C195.281 260.077 206.176 258.106 215.449 254.165C224.721 250.224 232.718 244.776 239.441 237.821L276.299 274.682C264.476 285.578 250.916 294.156 235.616 300.416C220.548 306.675 203.047 309.805 183.111 309.805Z" fill="white"/>
<path d="M182.763 343.329C164.45 343.329 147.76 306.675 131.997 300.416C116.466 293.924 102.789 284.883 90.9665 273.291C79.3759 261.7 70.3353 248.253 63.8446 232.952C57.3539 217.42 22.922 200.728 22.922 182.876C22.922 165.025 57.3539 148.449 63.8446 133.148C70.3353 117.616 79.3759 104.169 90.9665 92.8094C102.557 81.4496 116.118 72.6399 131.649 66.3804C147.412 59.8891 164.45 24.8538 182.763 24.8538C202.236 24.8538 219.505 59.7732 234.573 66.0327C249.873 72.2922 263.202 80.87 274.56 91.7661L238.05 128.628C231.56 121.673 223.678 116.225 214.406 112.283C205.365 108.342 194.818 106.372 182.763 106.372C172.1 106.372 162.248 108.226 153.208 111.936C144.399 115.413 136.749 120.513 130.258 127.237C123.999 133.96 119.016 142.074 115.307 151.579C111.829 161.084 110.091 171.517 110.091 182.876C110.091 194.468 111.829 205.017 115.307 214.522C119.016 224.027 123.999 232.141 130.258 238.864C136.749 245.587 144.399 250.804 153.208 254.513C162.248 258.222 172.1 260.077 182.763 260.077C195.281 260.077 206.176 258.106 215.449 254.165C224.721 250.224 232.719 244.776 239.441 237.821L276.299 274.682C264.477 285.578 250.916 294.156 235.616 300.416C220.549 306.675 202.699 343.329 182.763 343.329Z" fill="white"/>
<circle cx="180.714" cy="77.4512" r="19.6518" fill="#C51A29"/>
<circle cx="77.8315" cy="181.49" r="19.6518" fill="#C51A29"/>
<circle cx="180.714" cy="283.217" r="19.6518" fill="#C51A29"/>
</svg>
